P2
# {comprimido:no}
7 4
255
255 255 255 255 255 255 255 255 255 38 176 0 255 255 255 255 255 255 255 255 255 255 255 255 255 255 255 255 